<svg xmlns="http://www.w3.org/2000/svg" version="1.1" xmlns:xlink="http://www.w3.org/1999/xlink" xmlns:svgjs="http://svgjs.dev/svgjs" width="1440" height="560" preserveAspectRatio="none" viewBox="0 0 1440 560"><g clip-path="url(&quot;#SvgjsClipPath1099&quot;)" fill="none"><rect width="1440" height="560" x="0" y="0" fill="rgba(227, 239, 253, 1)"></rect><circle r="93.335" cx="7.06" cy="65.33" stroke="#0b48c5" stroke-opacity="0.25" stroke-width="2"></circle><circle r="93.335" cx="316.3" cy="316.05" stroke="#0b48c5" stroke-opacity="0.25" stroke-width="2"></circle><circle r="93.335" cx="751.06" cy="695.89" stroke="#0b48c5" stroke-opacity="0.25" stroke-width="2"></circle><circle r="78.8" cx="995.48" cy="387.97" stroke="#0b48c5" stroke-opacity="0.25" stroke-width="2"></circle><circle r="47.25" cx="58.63" cy="408.2" stroke="#0b48c5" stroke-opacity="0.25" stroke-width="2"></circle><circle r="63.035" cx="1418.98" cy="390.13" stroke="#0b48c5" stroke-opacity="0.25" stroke-width="2"></circle><circle r="108.97" cx="1120.94" cy="100.25" stroke="#0b48c5" stroke-opacity="0.25" stroke-width="2"></circle><circle r="50.6" cx="529.27" cy="325.79" stroke="#0b48c5" stroke-opacity="0.25" stroke-width="2"></circle><circle r="57.9" cx="887.26" cy="141.26" stroke="#0b48c5" stroke-opacity="0.25" stroke-width="2"></circle><circle r="124.57" cx="1058.21" cy="174.12" stroke="#0b48c5" stroke-opacity="0.25" stroke-width="2"></circle><circle r="94.145" cx="1106.31" cy="424.81" stroke="#0b48c5" stroke-opacity="0.25" stroke-width="2"></circle><circle r="73.165" cx="1223.56" cy="330.27" stroke="#0b48c5" stroke-opacity="0.25" stroke-width="2"></circle><circle r="157.17" cx="1279.29" cy="209.7" stroke="#0b48c5" stroke-opacity="0.25" stroke-width="2"></circle><circle r="143.435" cx="807.41" cy="266.9" stroke="#0b48c5" stroke-opacity="0.25" stroke-width="2"></circle><circle r="159.195" cx="460.84" cy="60.71" stroke="#0b48c5" stroke-opacity="0.25" stroke-width="2"></circle><circle r="179.8" cx="299.39" cy="429.14" stroke="#0b48c5" stroke-opacity="0.25" stroke-width="2"></circle><circle r="87.285" cx="201.61" cy="443.22" stroke="#0b48c5" stroke-opacity="0.25" stroke-width="2"></circle><circle r="116.2" cx="296.36" cy="84.02" stroke="#0b48c5" stroke-opacity="0.25" stroke-width="2"></circle><circle r="120.025" cx="348.82" cy="261.22" stroke="#0b48c5" stroke-opacity="0.25" stroke-width="2"></circle><circle r="125.685" cx="1035.73" cy="272.16" stroke="#0b48c5" stroke-opacity="0.25" stroke-width="2"></circle><circle r="106.205" cx="175.05" cy="436.6" stroke="#0b48c5" stroke-opacity="0.25" stroke-width="2"></circle><circle r="51.68" cx="492.2" cy="401.02" stroke="#0b48c5" stroke-opacity="0.25" stroke-width="2"></circle><circle r="162.41" cx="1105.53" cy="309.48" stroke="#0b48c5" stroke-opacity="0.25" stroke-width="2"></circle><circle r="98.065" cx="719.93" cy="47.28" stroke="#0b48c5" stroke-opacity="0.25" stroke-width="2"></circle><circle r="161.61" cx="1392.87" cy="107.35" stroke="#0b48c5" stroke-opacity="0.25" stroke-width="2"></circle></g><defs><clipPath id="SvgjsClipPath1099"><rect width="1440" height="560" x="0" y="0"></rect></clipPath></defs></svg>